<?xml version="1.0" standalone="no"?>
<!DOCTYPE svg PUBLIC "-//W3C//DTD SVG 20010904//EN"
 "http://www.w3.org/TR/2001/REC-SVG-20010904/DTD/svg10.dtd">
<svg version="1.0" xmlns="http://www.w3.org/2000/svg"
 width="400.000000pt" height="400.000000pt" viewBox="0 0 400.000000 400.000000"
 preserveAspectRatio="xMidYMid meet">
<metadata>
Created by potrace 1.14, written by Peter Selinger 2001-2017
</metadata>
<g transform="translate(0.000000,400.000000) scale(0.100000,-0.100000)"
fill="#000000" stroke="none">
<path d="M1790 2933 c-217 -27 -488 -126 -676 -244 l-61 -39 -262 0 -262 0 28
-34 c15 -18 68 -77 117 -130 l88 -96 -57 -62 c-64 -71 -136 -207 -162 -308
-22 -87 -22 -263 0 -350 9 -36 38 -108 64 -160 39 -80 60 -109 137 -186 77
-76 106 -97 186 -136 123 -60 200 -78 332 -78 170 0 310 46 443 146 l60 44 80
-87 c44 -48 97 -106 118 -128 l37 -40 38 40 c20 22 73 80 117 128 l81 88 55
-43 c127 -99 276 -148 447 -148 132 0 209 18 332 78 80 39 109 60 186 136 77
77 98 106 137 186 26 52 54 122 62 155 60 237 -7 499 -172 676 l-46 49 89 96
c49 53 102 112 117 130 l28 34 -260 0 -261 0 -52 34 c-173 109 -367 187 -588
233 -73 15 -439 27 -520 16z m495 -263 c106 -23 255 -69 255 -79 0 -3 -21 -14
-46 -25 -61 -25 -177 -102 -241 -160 -110 -99 -212 -271 -236 -395 -6 -33 -14
-61 -17 -61 -3 0 -11 27 -17 61 -13 67 -65 184 -113 254 -81 118 -241 251
-363 301 -26 10 -47 22 -47 25 0 16 241 81 366 98 107 15 343 5 459 -19z
m-900 -345 c178 -47 318 -189 360 -366 73 -312 -164 -609 -485 -609 -134 0
-247 47 -346 145 -98 97 -144 208 -144 350 0 142 46 253 144 350 100 98 205
143 341 144 39 1 97 -6 130 -14z m1480 0 c85 -23 152 -62 221 -130 156 -153
190 -386 87 -590 -32 -62 -132 -162 -199 -197 -285 -152 -645 9 -719 323 -73
310 160 605 480 608 39 1 97 -6 130 -14z"/>
<path d="M1180 2095 c-58 -19 -113 -64 -148 -123 -23 -41 -27 -58 -27 -127 0
-69 4 -86 27 -127 73 -123 226 -171 347 -108 49 25 106 86 127 135 21 51 21
149 0 200 -21 49 -78 110 -128 136 -51 26 -141 33 -198 14z"/>
<path d="M2670 2101 c-73 -23 -147 -88 -176 -156 -24 -58 -22 -153 5 -208 43
-88 149 -157 241 -157 86 0 180 57 228 138 23 41 27 58 27 127 0 69 -4 86 -27
127 -62 105 -192 161 -298 129z"/>
</g>
</svg>
